<svg xmlns="http://www.w3.org/2000/svg" width="151.72" height="20.322" viewBox="0 0 151.72 20.322"><g transform="translate(-23 -44.768)"><path d="M16.416-19.232h1.792V0H17.12V-18.176h-.256l-7.776,7.84-7.744-7.84H1.088V0H0V-19.232H1.792l7.3,7.36ZM15.648,0V-14.912L9.088-8.288l-6.56-6.624V0H1.44V-17.536L9.088-9.824l7.648-7.712V0Zm12.7,0H27.264V-17.792h5.7V-16.7H28.352ZM25.824,0V-16.7H21.216v-1.088h5.7V0ZM21.216-19.232H32.96v1.056H21.216ZM38.272-6.656V0H37.184V-7.744H40.96a4.9,4.9,0,0,0,2-.416,5.367,5.367,0,0,0,1.648-1.12,5.315,5.315,0,0,0,1.12-1.664,5.017,5.017,0,0,0,.416-2.016,4.829,4.829,0,0,0-.416-1.968,5.572,5.572,0,0,0-1.12-1.664,5.458,5.458,0,0,0-1.648-1.152,4.75,4.75,0,0,0-2-.432H36.832V0H35.744V-19.232H40.96a5.972,5.972,0,0,1,2.416.5,6.453,6.453,0,0,1,2,1.36,6.454,6.454,0,0,1,1.36,2,5.972,5.972,0,0,1,.5,2.416,5.972,5.972,0,0,1-.5,2.416,6.454,6.454,0,0,1-1.36,2,6.69,6.69,0,0,1-2,1.376,5.812,5.812,0,0,1-2.416.512ZM37.184-17.792H40.96a4.471,4.471,0,0,1,1.872.4,5.184,5.184,0,0,1,1.536,1.056,4.948,4.948,0,0,1,1.04,1.536,4.553,4.553,0,0,1,.384,1.84,4.553,4.553,0,0,1-.384,1.84,4.948,4.948,0,0,1-1.04,1.536,5.184,5.184,0,0,1-1.536,1.056,4.471,4.471,0,0,1-1.872.4H37.184ZM38.272-16.7v7.488H40.96a3.453,3.453,0,0,0,1.44-.3,4.136,4.136,0,0,0,1.184-.8A3.724,3.724,0,0,0,44.4-11.5a3.563,3.563,0,0,0,.3-1.456,3.453,3.453,0,0,0-.3-1.44,3.978,3.978,0,0,0-.816-1.184A3.978,3.978,0,0,0,42.4-16.4a3.453,3.453,0,0,0-1.44-.3ZM59.1-1.44H50.848V-19.232h1.088v16.7H59.1V-1.44ZM59.1,0h-9.7V-19.232H50.5V-1.088H59.1Z" transform="translate(23 64)" fill="#fff"/><path d="M.77,0V-7.12H5.53V-6.1H2.03v1.97H5.32v1.02H2.03v2.09h3.5V0ZM11.51-7.12h1.21V0h-.96L7.92-4.99V0H6.72V-7.12h.96l3.83,4.98ZM15.94,0V-6.06H13.62V-7.12h5.95v1.06H17.24V0Zm4.52,0V-7.12h4.76V-6.1h-3.5v1.97h3.29v1.02H21.72v2.09h3.5V0ZM32.27,0H30.91L30-2.37a.794.794,0,0,0-.37-.46,1.408,1.408,0,0,0-.65-.13H27.69V0H26.41V-7.12h3.05a2.791,2.791,0,0,1,1.84.53,1.875,1.875,0,0,1,.63,1.52,1.938,1.938,0,0,1-.375,1.205,2.03,2.03,0,0,1-1.065.7,1.244,1.244,0,0,1,.91.88ZM29.28-3.96a1.763,1.763,0,0,0,1.08-.27.971.971,0,0,0,.35-.82.951.951,0,0,0-.345-.8A1.785,1.785,0,0,0,29.28-6.12H27.67v2.16ZM34.9,0V-6.06H32.58V-7.12h5.95v1.06H36.2V0Zm9.08,0-.71-1.67H39.79L39.07,0h-1.3l3.22-7.12h1.05L45.27,0ZM40.22-2.67h2.62L41.53-5.72ZM46.04,0V-7.12h1.29V0Zm7.62-7.12h1.21V0h-.96L50.07-4.99V0h-1.2V-7.12h.96l3.83,4.98Zm8.68,0h1.02V0H62.22V-4.42L60.33,0h-.85l-1.9-4.37V0H56.44V-7.12h1.02l2.45,5.57ZM64.92,0V-7.12h4.76V-6.1h-3.5v1.97h3.29v1.02H66.18v2.09h3.5V0ZM75.66-7.12h1.21V0h-.96L72.07-4.99V0h-1.2V-7.12h.96l3.83,4.98ZM80.09,0V-6.06H77.77V-7.12h5.95v1.06H81.39V0ZM3.18,13.09a5.194,5.194,0,0,1-1.535-.22A3.528,3.528,0,0,1,.43,12.24l.44-.94a3.752,3.752,0,0,0,1.085.575,3.949,3.949,0,0,0,1.235.185,2.118,2.118,0,0,0,1.145-.26.821.821,0,0,0,.405-.73.675.675,0,0,0-.375-.615,4.706,4.706,0,0,0-1.235-.4A5.128,5.128,0,0,1,1.18,9.3,1.575,1.575,0,0,1,.57,7.96,1.917,1.917,0,0,1,.91,6.84a2.269,2.269,0,0,1,.965-.77A3.5,3.5,0,0,1,3.32,5.79a4.477,4.477,0,0,1,1.425.225A2.979,2.979,0,0,1,5.85,6.64l-.43.94a3.283,3.283,0,0,0-2.1-.76,1.847,1.847,0,0,0-1.09.285.9.9,0,0,0-.4.775.708.708,0,0,0,.355.64A4.21,4.21,0,0,0,3.4,8.93a8.664,8.664,0,0,1,1.45.455,2.158,2.158,0,0,1,.86.63,1.523,1.523,0,0,1,.3.965A1.865,1.865,0,0,1,5.67,12.1a2.171,2.171,0,0,1-.98.735A4,4,0,0,1,3.18,13.09ZM7.21,13V5.88h4.76V6.9H8.47V8.87h3.29V9.89H8.47v2.09h3.5V13Zm11.81,0H17.66l-.91-2.37a.794.794,0,0,0-.37-.46,1.408,1.408,0,0,0-.65-.13H14.44V13H13.16V5.88h3.05a2.791,2.791,0,0,1,1.84.53,1.875,1.875,0,0,1,.63,1.52,1.938,1.938,0,0,1-.375,1.205,2.03,2.03,0,0,1-1.065.7,1.244,1.244,0,0,1,.91.88ZM16.03,9.04a1.763,1.763,0,0,0,1.08-.27.971.971,0,0,0,.35-.82.951.951,0,0,0-.345-.8A1.785,1.785,0,0,0,16.03,6.88H14.42V9.04ZM25.3,5.88h1.31L23.44,13H22.39L19.22,5.88h1.34l2.37,5.5ZM27.29,13V5.88h1.29V13Zm6.06.09a3.626,3.626,0,0,1-1.835-.45,3.008,3.008,0,0,1-1.2-1.275,4.213,4.213,0,0,1-.42-1.935,4.189,4.189,0,0,1,.42-1.925,2.977,2.977,0,0,1,1.2-1.27A3.658,3.658,0,0,1,33.35,5.79a4.027,4.027,0,0,1,1.355.225,2.918,2.918,0,0,1,1.055.625l-.42.94a3.387,3.387,0,0,0-.955-.565A2.913,2.913,0,0,0,33.37,6.84a1.971,1.971,0,0,0-1.595.67,2.9,2.9,0,0,0-.565,1.92,2.956,2.956,0,0,0,.56,1.935,1.962,1.962,0,0,0,1.6.675,2.913,2.913,0,0,0,1.015-.175,3.387,3.387,0,0,0,.955-.565l.42.94a2.918,2.918,0,0,1-1.055.625A4.027,4.027,0,0,1,33.35,13.09ZM36.97,13V5.88h4.76V6.9h-3.5V8.87h3.29V9.89H38.23v2.09h3.5V13Zm8.26.09a5.194,5.194,0,0,1-1.535-.22,3.528,3.528,0,0,1-1.215-.63l.44-.94a3.752,3.752,0,0,0,1.085.575,3.949,3.949,0,0,0,1.235.185,2.118,2.118,0,0,0,1.145-.26.821.821,0,0,0,.405-.73.675.675,0,0,0-.375-.615,4.706,4.706,0,0,0-1.235-.4,5.128,5.128,0,0,1-1.95-.75,1.575,1.575,0,0,1-.61-1.34,1.917,1.917,0,0,1,.34-1.12,2.269,2.269,0,0,1,.965-.77,3.5,3.5,0,0,1,1.445-.28,4.477,4.477,0,0,1,1.425.225,2.979,2.979,0,0,1,1.1.625l-.43.94a3.283,3.283,0,0,0-2.1-.76,1.847,1.847,0,0,0-1.09.285.9.9,0,0,0-.4.775.708.708,0,0,0,.355.64,4.21,4.21,0,0,0,1.215.41,8.664,8.664,0,0,1,1.45.455,2.158,2.158,0,0,1,.86.63,1.523,1.523,0,0,1,.3.965,1.865,1.865,0,0,1-.34,1.115,2.171,2.171,0,0,1-.98.735A4,4,0,0,1,45.23,13.09Z" transform="translate(91 52)" fill="#fff" opacity="0.553"/></g></svg>